<?xml version="1.0" standalone="no"?>
<!DOCTYPE svg PUBLIC "-//W3C//DTD SVG 20010904//EN"
 "http://www.w3.org/TR/2001/REC-SVG-20010904/DTD/svg10.dtd">
<svg version="1.0" xmlns="http://www.w3.org/2000/svg"
 width="867.000000pt" height="867.000000pt" viewBox="0 0 867.000000 867.000000"
 preserveAspectRatio="xMidYMid meet">
<metadata>
Created by potrace 1.14, written by Peter Selinger 2001-2017
</metadata>
<g transform="translate(0.000000,867.000000) scale(0.100000,-0.100000)"
fill="#000000" stroke="none">
<path d="M4050 7075 c-172 -25 -349 -71 -489 -127 -111 -44 -294 -139 -386
-201 -44 -29 -116 -73 -160 -97 -44 -24 -117 -68 -163 -98 l-83 -54 -80 48
c-101 61 -202 154 -270 246 -70 97 -117 146 -159 168 -52 26 -98 34 -116 19
-23 -19 -115 -208 -158 -322 -20 -53 -51 -155 -68 -225 -30 -116 -32 -140 -32
-287 0 -147 2 -167 27 -240 14 -44 44 -110 66 -145 l39 -65 -35 -60 c-181
-311 -300 -682 -343 -1060 -15 -135 -12 -510 5 -656 58 -498 258 -975 572
-1368 87 -108 245 -274 330 -345 l58 -49 -45 -91 c-102 -205 -118 -460 -40
-625 51 -108 144 -178 292 -219 56 -15 118 -17 548 -17 441 0 491 2 550 18 93
27 166 65 217 114 43 42 103 150 103 186 0 15 11 17 95 17 l95 0 6 -28 c14
-56 64 -139 109 -181 58 -54 147 -95 247 -115 107 -22 918 -23 1018 -2 190 41
293 118 352 263 20 52 23 73 22 218 0 154 -1 164 -32 255 -18 52 -45 119 -61
149 l-28 55 145 140 c428 415 678 884 793 1486 19 98 23 160 26 418 5 326 -1
423 -42 628 -58 288 -171 582 -319 832 l-56 94 41 66 c64 106 81 174 86 342 5
121 2 164 -16 255 -34 180 -109 387 -201 555 -40 74 -57 81 -126 55 -62 -23
-86 -46 -168 -154 -110 -144 -223 -244 -354 -310 l-42 -22 -43 29 c-23 16 -85
53 -137 82 -52 30 -128 75 -167 102 -235 157 -545 274 -840 318 -160 23 -443
26 -583 5z"/>
</g>
</svg>
